# xmcd
#
# Track frame offsets: 
#        150
#        20750
#        38960
#        60522
#        74780
#        89962
#        109624
#        125353
#        139090
#        160449
#        176049
#        192146
#        210878
#        224867
#
# Disc length: 3236 seconds
#
# Revision: 4
# Processed by: cddbd v1.5.2PL0 Copyright (c) Steve Scherf et al.
# Submitted via: ExactAudioCopy v0.95b4
#
DISCID=dd0ca20e
DTITLE=Various Artist - Hot Hits Dancin' Country Vol. 6
DYEAR=1996
DGENRE=Country
TTITLE0=Brooks and Dunn - My Maria (Remix)
TTITLE1=Ricochet - Daddy's Money (Remix)
TTITLE2=Jeff Carson - Holdin' On To Something (Remix)
TTITLE3=Wade Hayes - On A Good Night
TTITLE4=Paul Brandt - My Heart Has A History
TTITLE5=Blackhawk - Big Guitar (Remix)
TTITLE6=Jo Dee Messina - Heads Carolina, Tails California
TTITLE7=Marty Stuart and Travi Tritt - Honky Tonkin's What I Do Best
TTITLE8=Tracy Byrd - 4 To 1 In Atlanta (Remix)
TTITLE9=David Lee Murphy - Every Time I Get Around You
TTITLE10=Trace Adkins - There's A Girl In Texas
TTITLE11=Clay Walker - Only On Days That End In Y (Remix)
TTITLE12=Shania Twain - No One Needs To Know
TTITLE13=Smokin' Armadilos - Thump Factor
EXTD=
EXTT0=
EXTT1=
EXTT2=
EXTT3=
EXTT4=
EXTT5=
EXTT6=
EXTT7=
EXTT8=
EXTT9=
EXTT10=
EXTT11=
EXTT12=
EXTT13=
PLAYORDER=
